<svg width="48" height="48" viewBox="0 0 48 48" fill="none" xmlns="http://www.w3.org/2000/svg">
<mask id="path-1-inside-1" fill="white">
<path fill-rule="evenodd" clip-rule="evenodd" d="M0 0H48V16.252C47.3608 16.0875 46.6906 16 46 16C41.5817 16 38 19.5817 38 24C38 28.4183 41.5817 32 46 32C46.6906 32 47.3608 31.9125 48 31.748V48H0V31.748C0.63924 31.9125 1.3094 32 2 32C6.41828 32 10 28.4183 10 24C10 19.5817 6.41828 16 2 16C1.3094 16 0.63924 16.0875 0 16.252V0Z"/>
</mask>
<path fill-rule="evenodd" clip-rule="evenodd" d="M0 0H48V16.252C47.3608 16.0875 46.6906 16 46 16C41.5817 16 38 19.5817 38 24C38 28.4183 41.5817 32 46 32C46.6906 32 47.3608 31.9125 48 31.748V48H0V31.748C0.63924 31.9125 1.3094 32 2 32C6.41828 32 10 28.4183 10 24C10 19.5817 6.41828 16 2 16C1.3094 16 0.63924 16.0875 0 16.252V0Z" fill="#E6E1DA"/>
<path d="M48 0H50.2V-2.2H48V0ZM0 0V-2.2H-2.2V0H0ZM48 16.252L47.4516 18.3826L50.2 19.09V16.252H48ZM48 31.748H50.2V28.91L47.4516 29.6174L48 31.748ZM48 48V50.2H50.2V48H48ZM0 48H-2.2V50.2H0V48ZM0 31.748L0.548371 29.6174L-2.2 28.91V31.748H0ZM0 16.252H-2.2V19.09L0.548371 18.3826L0 16.252ZM48 -2.2H0V2.2H48V-2.2ZM50.2 16.252V0H45.8V16.252H50.2ZM46 18.2C46.5041 18.2 46.99 18.2638 47.4516 18.3826L48.5484 14.1215C47.7315 13.9112 46.8771 13.8 46 13.8V18.2ZM40.2 24C40.2 20.7967 42.7967 18.2 46 18.2V13.8C40.3667 13.8 35.8 18.3667 35.8 24H40.2ZM46 29.8C42.7967 29.8 40.2 27.2033 40.2 24H35.8C35.8 29.6333 40.3667 34.2 46 34.2V29.8ZM47.4516 29.6174C46.99 29.7362 46.5041 29.8 46 29.8V34.2C46.8771 34.2 47.7315 34.0888 48.5484 33.8785L47.4516 29.6174ZM50.2 48V31.748H45.8V48H50.2ZM0 50.2H48V45.8H0V50.2ZM-2.2 31.748V48H2.2V31.748H-2.2ZM2 29.8C1.49593 29.8 1.00997 29.7362 0.548371 29.6174L-0.548371 33.8785C0.268508 34.0888 1.12287 34.2 2 34.2V29.8ZM7.8 24C7.8 27.2033 5.20325 29.8 2 29.8V34.2C7.6333 34.2 12.2 29.6333 12.2 24H7.8ZM2 18.2C5.20325 18.2 7.8 20.7967 7.8 24H12.2C12.2 18.3667 7.6333 13.8 2 13.8V18.2ZM0.548371 18.3826C1.00997 18.2638 1.49593 18.2 2 18.2V13.8C1.12287 13.8 0.268508 13.9112 -0.548371 14.1215L0.548371 18.3826ZM-2.2 0V16.252H2.2V0H-2.2Z" fill="#6B6358" mask="url(#path-1-inside-1)"/>
</svg>
