<svg width="48" height="48" viewBox="0 0 48 48" fill="none" xmlns="http://www.w3.org/2000/svg">
<path d="M22.8 0V6.05625C13.8319 6.65199 6.63305 13.8318 6.0375 22.8H0V25.2H6.0375C6.6269 34.1745 13.8273 41.3666 22.8 41.9625V48H25.2V41.9625C34.1727 41.3666 41.3731 34.1745 41.9625 25.2H48V22.8H41.9625C41.3669 13.8318 34.1681 6.65199 25.2 6.05625V0H22.8ZM22.8 8.45625V14.4H25.2V8.45625C32.8659 9.03759 38.9577 15.1354 39.5438 22.8H33.6V25.2H39.5625C38.9853 32.874 32.8728 38.9809 25.2 39.5625V33.6H22.8V39.5625C15.1272 38.9809 9.01466 32.874 8.4375 25.2H14.4V22.8H8.45625C9.04233 15.1355 15.1341 9.03759 22.8 8.45625Z" fill="#6B6358"/>
</svg>
